<svg xmlns="http://www.w3.org/2000/svg" width="178.551" height="34.211" viewBox="0 0 178.551 34.211">
  <g id="Group_27125" data-name="Group 27125" transform="translate(-32 -21)">
    <g id="Group_26722" data-name="Group 26722" transform="translate(32 21)">
      <g id="Group_26716" data-name="Group 26716" transform="translate(8.996 0)">
        <path id="Path_21202" data-name="Path 21202" d="M456.509,341.407c-.069.343-.137.617-.206.891l-1.782-.411c.205-1.439.548-3.906-.274-5.14a.683.683,0,0,0-.343-.274,2.952,2.952,0,0,0-1.165-.206c-3.5.411-8.292,5-10.828,7.538-1.234,1.234-2.4,2.467-3.564,3.769h0l-.548-1.234h0c3.289-4.18,11.924-14.186,17-11.719C457.194,335.856,456.988,339.214,456.509,341.407Z" transform="translate(-437.8 -334.237)" fill="#ff594b"/>
      </g>
      <g id="Group_26717" data-name="Group 26717" transform="translate(3.642 1.697)">
        <path id="Path_21203" data-name="Path 21203" d="M438.357,357.332h0l-1.3.137h0c-2.947-4.454-9.8-15.693-5.894-19.805,1.85-1.85,5-.617,6.922.48a4.618,4.618,0,0,1,.754.48h0l-1.508,1.3h0c-1.3-.617-3.152-1.371-4.386-1.028a1.493,1.493,0,0,0-.343.206,1.885,1.885,0,0,0-.548,1.028c-.685,3.5,2.193,9.457,3.769,12.61C436.644,354.316,437.534,355.824,438.357,357.332Z" transform="translate(-429.988 -336.713)"/>
      </g>
      <g id="Group_26718" data-name="Group 26718" transform="translate(0 16.422)">
        <path id="Path_21204" data-name="Path 21204" d="M446,364.436l-.274,1.3h-.069c-5.14,1.439-17.955,4.523-20.628-.48-1.234-2.33.959-4.934,2.6-6.442.206-.206.48-.411.685-.617h0l.754,1.782h0c-1.028,1.028-2.33,2.6-2.4,3.906a.974.974,0,0,0,.137.411,1.6,1.6,0,0,0,.822.822c3.084,1.782,9.663.822,13.158.274a43.6,43.6,0,0,0,5.208-.959Z" transform="translate(-424.673 -358.2)"/>
      </g>
      <g id="Group_26719" data-name="Group 26719" transform="translate(13.108 13.955)">
        <path id="Path_21205" data-name="Path 21205" d="M456.341,355.354h0c-.206,5.345-1.3,18.5-6.853,19.463-2.6.411-4.386-2.467-5.345-4.455-.137-.274-.206-.548-.343-.822h0l1.919-.206h0a9.624,9.624,0,0,0,2.467,3.221,1.2,1.2,0,0,0,.822.274,1.689,1.689,0,0,0,1.165-.548c2.6-2.4,3.769-8.909,4.317-12.472q.411-2.57.617-5.14V354.6Z" transform="translate(-443.8 -354.6)"/>
      </g>
      <g id="Group_26720" data-name="Group 26720" transform="translate(17.356 7.445)">
        <path id="Path_21206" data-name="Path 21206" d="M467.338,357.572c-.411,2.6-3.7,3.427-5.894,3.7-.343,0-.617.069-.891.069h0l.411-1.919h0c1.439-.274,3.427-.754,4.18-1.713a.973.973,0,0,0,.137-.411,2.366,2.366,0,0,0-.137-1.165c-1.439-3.221-7.333-6.3-10.485-7.95-1.508-.754-3.084-1.508-4.66-2.193h0l1.028-.891h.068C455.962,346.95,468.092,352.021,467.338,357.572Z" transform="translate(-450 -345.1)"/>
      </g>
      <circle id="Ellipse_129" data-name="Ellipse 129" cx="2.056" cy="2.056" r="2.056" transform="translate(24.621 4.566)" fill="#ff5a4b"/>
    </g>
    <g id="Group_26723" data-name="Group 26723" transform="translate(79.105 29)">
      <path id="Path_21103" data-name="Path 21103" d="M59.831,199.72h3.03a.586.586,0,0,1,.553.389l5.357,15.149a.588.588,0,0,1-.553.782H65.776a.588.588,0,0,1-.558-.409L64.4,213.09a.588.588,0,0,0-.558-.409H58.69a.59.59,0,0,0-.558.4l-.842,2.551a.59.59,0,0,1-.558.4H54.419a.587.587,0,0,1-.553-.782l5.407-15.149A.6.6,0,0,1,59.831,199.72Zm.174,10.151h2.566a.586.586,0,0,0,.558-.762l-1.266-3.947a.584.584,0,0,0-1.111,0l-1.3,3.947A.581.581,0,0,0,60.005,209.871Z" transform="translate(-53.832 -199.222)"/>
      <path id="Path_21119" data-name="Path 21119" d="M780.864,210.769a6.428,6.428,0,0,1-.952,1.943.58.58,0,0,0,.075.762l1.051.987a.585.585,0,0,1,.02.832l-.967,1.007a.588.588,0,0,1-.827.02l-1.221-1.156a.582.582,0,0,0-.683-.09,6.907,6.907,0,0,1-1.186.553,8.324,8.324,0,0,1-2.626.369,7.5,7.5,0,0,1-5.272-1.9q-2.526-2.295-2.526-6.732,0-4.47,2.591-6.762a7.656,7.656,0,0,1,5.257-1.869,7.535,7.535,0,0,1,5.312,1.983,8.29,8.29,0,0,1,2.482,6.408A10.727,10.727,0,0,1,780.864,210.769Zm-6.184,2.193a5.181,5.181,0,0,0,.762-.279l-1.226-1.166a.584.584,0,0,1-.02-.827l.942-.987a.582.582,0,0,1,.822-.02l.633.593a.587.587,0,0,0,.952-.229q.12-.321.194-.6a7.942,7.942,0,0,0,.244-2.093,6.987,6.987,0,0,0-1.121-4.246,3.843,3.843,0,0,0-3.284-1.5,4,4,0,0,0-3.234,1.44,6.564,6.564,0,0,0-1.206,4.305q0,3.356,1.729,4.8a4.03,4.03,0,0,0,2.681.942A4.24,4.24,0,0,0,774.68,212.962Z" transform="translate(-707.447 -198.73)"/>
      <path id="Path_21095" data-name="Path 21095" d="M736.9,140.686a.59.59,0,0,1,.568.463,1.623,1.623,0,0,0,.354.733,2.957,2.957,0,0,0,2.183.633,3.341,3.341,0,0,0,1.485-.279.88.88,0,0,0,.548-.832.9.9,0,0,0-.444-.807,17.907,17.907,0,0,0-3.3-.952,6.893,6.893,0,0,1-2.9-1.271,2.771,2.771,0,0,1-.842-2.168,3.764,3.764,0,0,1,1.316-2.875,5.276,5.276,0,0,1,3.7-1.2,6.771,6.771,0,0,1,3.688.9,3.55,3.55,0,0,1,1.535,2.417.587.587,0,0,1-.578.7h-1.993a.6.6,0,0,1-.568-.448,1.488,1.488,0,0,0-.259-.518,2.169,2.169,0,0,0-1.774-.643,2.549,2.549,0,0,0-1.47.319.93.93,0,0,0-.439.752.822.822,0,0,0,.469.787,19.829,19.829,0,0,0,3.294.872,6.034,6.034,0,0,1,2.825,1.34,3.044,3.044,0,0,1,.932,2.267,3.665,3.665,0,0,1-1.336,2.93,8.029,8.029,0,0,1-8.342-.065,3.851,3.851,0,0,1-1.311-2.4.587.587,0,0,1,.583-.663H736.9Z" transform="translate(-717.784 -128.143)"/>
      <path id="Path_21096" data-name="Path 21096" d="M772.12,131.323v-1.076a.584.584,0,0,1,.583-.583h.513a.584.584,0,0,0,.583-.583v-2.2a.584.584,0,0,1,.583-.583h1.953a.584.584,0,0,1,.583.583v2.2a.584.584,0,0,0,.583.583h.787a.584.584,0,0,1,.583.583v1.076a.584.584,0,0,1-.583.583H777.5a.584.584,0,0,0-.583.583v5.79a1.457,1.457,0,0,0,.189.927,2.083,2.083,0,0,0,1.151.184c.095,0,.2,0,.3,0l.314-.015v1.794a.583.583,0,0,1-.563.583l-.932.035a4.015,4.015,0,0,1-3.055-.772,2.308,2.308,0,0,1-.533-1.669V132.5a.584.584,0,0,0-.583-.583H772.7A.6.6,0,0,1,772.12,131.323Z" transform="translate(-743.716 -124.805)"/>
      <path id="Path_21081" data-name="Path 21081" d="M222.855,132.743a4.913,4.913,0,0,1,2.083,1.784,5.988,5.988,0,0,1,.962,2.5,12.2,12.2,0,0,1,.1,1.8.59.59,0,0,1-.588.593h-7.554a.58.58,0,0,0-.578.678,2.646,2.646,0,0,0,1.186,1.869,3.2,3.2,0,0,0,1.739.453,2.688,2.688,0,0,0,1.754-.553,2.4,2.4,0,0,0,.5-.578.561.561,0,0,1,.483-.249h2.118a.587.587,0,0,1,.543.812,4.855,4.855,0,0,1-.947,1.37,5.875,5.875,0,0,1-4.54,1.759,6.568,6.568,0,0,1-4.251-1.485q-1.839-1.487-1.844-4.834a6.527,6.527,0,0,1,1.664-4.809,5.82,5.82,0,0,1,4.315-1.674A6.858,6.858,0,0,1,222.855,132.743Zm-4.719,2.726a2.88,2.88,0,0,0-.648,1.066.588.588,0,0,0,.548.8h4.007a.594.594,0,0,0,.563-.762,2.313,2.313,0,0,0-.713-1.146,2.764,2.764,0,0,0-1.869-.653A2.547,2.547,0,0,0,218.136,135.469Z" transform="translate(-177.653 -128.193)"/>
      <path id="Path_21094" data-name="Path 21094" d="M710.967,132.245q.06.007.269.015v3.234c-.2-.02-.379-.035-.533-.045s-.279-.01-.379-.01a2.612,2.612,0,0,0-2.556,1.241,4.817,4.817,0,0,0-.364,2.148v5.183a.584.584,0,0,1-.583.583h-2.008a.584.584,0,0,1-.583-.583v-10.9a.584.584,0,0,1,.583-.583h1.918a.51.51,0,0,1,.508.508h0a.5.5,0,0,0,.892.324,3.387,3.387,0,0,1,.379-.379,3.481,3.481,0,0,1,2.3-.743C710.873,132.24,710.922,132.245,710.967,132.245Z" transform="translate(-654.398 -127.755)"/>
      <path id="Path_21097" data-name="Path 21097" d="M805.876,132.82a.584.584,0,0,1,.583.583v6.687a3.772,3.772,0,0,0,.244,1.55,1.675,1.675,0,0,0,1.684.917,2.2,2.2,0,0,0,2.2-1.306,4.773,4.773,0,0,0,.309-1.869V133.4a.584.584,0,0,1,.583-.583h2.028a.584.584,0,0,1,.583.583v10.9a.584.584,0,0,1-.583.583h-1.894a.584.584,0,0,1-.583-.583V143.18c-.03.035-.1.15-.219.334a2.194,2.194,0,0,1-.419.488,4.337,4.337,0,0,1-1.43.907,4.8,4.8,0,0,1-1.62.244,3.6,3.6,0,0,1-3.6-1.928,7.426,7.426,0,0,1-.518-3.134V133.4a.584.584,0,0,1,.583-.583Z" transform="translate(-727.984 -128.335)"/>
      <path id="Path_21077" data-name="Path 21077" d="M59.121,137.263a5.124,5.124,0,0,0,1.261-.274.956.956,0,0,0,.683-.9,1.053,1.053,0,0,0-.523-1.022,3.276,3.276,0,0,0-1.53-.284,2.009,2.009,0,0,0-1.6.553,2.057,2.057,0,0,0-.354.683.586.586,0,0,1-.558.424H54.571a.586.586,0,0,1-.578-.688,4.267,4.267,0,0,1,.807-1.914q1.256-1.592,4.315-1.595a7.719,7.719,0,0,1,3.538.787A3.012,3.012,0,0,1,64.2,136v5.536c0,.384,0,.847.02,1.4a1.719,1.719,0,0,0,.189.842,1.121,1.121,0,0,0,.463.364v.463h-3.01a.577.577,0,0,1-.563-.424c-.025-.09-.045-.179-.06-.264q-.052-.321-.09-.733a6.513,6.513,0,0,1-1.515,1.206,4.6,4.6,0,0,1-2.317.588,3.961,3.961,0,0,1-2.721-.937,3.319,3.319,0,0,1-1.076-2.651,3.432,3.432,0,0,1,1.729-3.219,7.756,7.756,0,0,1,2.791-.777Zm1.928,1.47a3.337,3.337,0,0,1-.613.3,4.792,4.792,0,0,1-.847.214l-.718.135a4.773,4.773,0,0,0-1.45.434,1.44,1.44,0,0,0-.747,1.34,1.394,1.394,0,0,0,.453,1.166,1.734,1.734,0,0,0,1.106.359,3.289,3.289,0,0,0,1.9-.6,2.549,2.549,0,0,0,.907-2.183v-1.171Z" transform="translate(33.685 -128.263)"/>
      <path id="Path_21096-2" data-name="Path 21096" d="M772.12,131.323v-1.076a.584.584,0,0,1,.583-.583h.513a.584.584,0,0,0,.583-.583v-2.2a.584.584,0,0,1,.583-.583h1.953a.584.584,0,0,1,.583.583v2.2a.584.584,0,0,0,.583.583h.787a.584.584,0,0,1,.583.583v1.076a.584.584,0,0,1-.583.583H777.5a.584.584,0,0,0-.583.583v5.79a1.457,1.457,0,0,0,.189.927,2.083,2.083,0,0,0,1.151.184c.095,0,.2,0,.3,0l.314-.015v1.794a.583.583,0,0,1-.563.583l-.932.035a4.015,4.015,0,0,1-3.055-.772,2.308,2.308,0,0,1-.533-1.669V132.5a.584.584,0,0,0-.583-.583H772.7A.6.6,0,0,1,772.12,131.323Z" transform="translate(-659.999 -124.805)"/>
      <path id="Path_21129" data-name="Path 21129" d="M59.121,137.263a5.124,5.124,0,0,0,1.261-.274.956.956,0,0,0,.683-.9,1.053,1.053,0,0,0-.523-1.022,3.276,3.276,0,0,0-1.53-.284,2.009,2.009,0,0,0-1.6.553,2.057,2.057,0,0,0-.354.683.586.586,0,0,1-.558.424H54.571a.586.586,0,0,1-.578-.688,4.267,4.267,0,0,1,.807-1.914q1.256-1.592,4.315-1.595a7.719,7.719,0,0,1,3.538.787A3.012,3.012,0,0,1,64.2,136v5.536c0,.384,0,.847.02,1.4a1.719,1.719,0,0,0,.189.842,1.121,1.121,0,0,0,.463.364v.463h-3.01a.577.577,0,0,1-.563-.424c-.025-.09-.045-.179-.06-.264q-.052-.321-.09-.733a6.513,6.513,0,0,1-1.515,1.206,4.6,4.6,0,0,1-2.317.588,3.961,3.961,0,0,1-2.721-.937,3.319,3.319,0,0,1-1.076-2.651,3.432,3.432,0,0,1,1.729-3.219,7.756,7.756,0,0,1,2.791-.777Zm1.928,1.47a3.337,3.337,0,0,1-.613.3,4.792,4.792,0,0,1-.847.214l-.718.135a4.773,4.773,0,0,0-1.45.434,1.44,1.44,0,0,0-.747,1.34,1.394,1.394,0,0,0,.453,1.166,1.734,1.734,0,0,0,1.106.359,3.289,3.289,0,0,0,1.9-.6,2.549,2.549,0,0,0,.907-2.183v-1.171Z" transform="translate(66.574 -128.263)"/>
      <path id="Path_21090" data-name="Path 21090" d="M548.282,133.217a3.983,3.983,0,0,1,1.186,3.249v7.54a.584.584,0,0,1-.583.583h-2.063a.584.584,0,0,1-.583-.583v-6.757a3.352,3.352,0,0,0-.254-1.46,1.78,1.78,0,0,0-1.759-.932,2.184,2.184,0,0,0-2.188,1.36,4.716,4.716,0,0,0-.309,1.839V144a.584.584,0,0,1-.583.583h-1.983a.584.584,0,0,1-.583-.583V133.127a.584.584,0,0,1,.583-.583H541.2a.434.434,0,0,1,.434.434v.05a.435.435,0,0,0,.757.289,3.483,3.483,0,0,1,.389-.354,3.964,3.964,0,0,1,2.457-.733A4.646,4.646,0,0,1,548.282,133.217Z" transform="translate(-438.917 -127.745)"/>
    </g>
  </g>
</svg>
