<svg id="Group_26722" data-name="Group 26722" xmlns="http://www.w3.org/2000/svg" width="34.728" height="34.211" viewBox="0 0 34.728 34.211">
  <g id="Group_26716" data-name="Group 26716" transform="translate(8.996 0)">
    <path id="Path_21202" data-name="Path 21202" d="M456.509,341.407c-.069.343-.137.617-.206.891l-1.782-.411c.205-1.439.548-3.906-.274-5.14a.683.683,0,0,0-.343-.274,2.952,2.952,0,0,0-1.165-.206c-3.5.411-8.292,5-10.828,7.538-1.234,1.234-2.4,2.467-3.564,3.769h0l-.548-1.234h0c3.289-4.18,11.924-14.186,17-11.719C457.194,335.856,456.988,339.214,456.509,341.407Z" transform="translate(-437.8 -334.237)" fill="#ff594b"/>
  </g>
  <g id="Group_26717" data-name="Group 26717" transform="translate(3.642 1.697)">
    <path id="Path_21203" data-name="Path 21203" d="M438.357,357.332h0l-1.3.137h0c-2.947-4.454-9.8-15.693-5.894-19.805,1.85-1.85,5-.617,6.922.48a4.618,4.618,0,0,1,.754.48h0l-1.508,1.3h0c-1.3-.617-3.152-1.371-4.386-1.028a1.493,1.493,0,0,0-.343.206,1.885,1.885,0,0,0-.548,1.028c-.685,3.5,2.193,9.457,3.769,12.61C436.644,354.316,437.534,355.824,438.357,357.332Z" transform="translate(-429.988 -336.713)"/>
  </g>
  <g id="Group_26718" data-name="Group 26718" transform="translate(0 16.422)">
    <path id="Path_21204" data-name="Path 21204" d="M446,364.436l-.274,1.3h-.069c-5.14,1.439-17.955,4.523-20.628-.48-1.234-2.33.959-4.934,2.6-6.442.206-.206.48-.411.685-.617h0l.754,1.782h0c-1.028,1.028-2.33,2.6-2.4,3.906a.974.974,0,0,0,.137.411,1.6,1.6,0,0,0,.822.822c3.084,1.782,9.663.822,13.158.274a43.6,43.6,0,0,0,5.208-.959Z" transform="translate(-424.673 -358.2)"/>
  </g>
  <g id="Group_26719" data-name="Group 26719" transform="translate(13.108 13.955)">
    <path id="Path_21205" data-name="Path 21205" d="M456.341,355.354h0c-.206,5.345-1.3,18.5-6.853,19.463-2.6.411-4.386-2.467-5.345-4.455-.137-.274-.206-.548-.343-.822h0l1.919-.206h0a9.624,9.624,0,0,0,2.467,3.221,1.2,1.2,0,0,0,.822.274,1.689,1.689,0,0,0,1.165-.548c2.6-2.4,3.769-8.909,4.317-12.472q.411-2.57.617-5.14V354.6Z" transform="translate(-443.8 -354.6)"/>
  </g>
  <g id="Group_26720" data-name="Group 26720" transform="translate(17.356 7.445)">
    <path id="Path_21206" data-name="Path 21206" d="M467.338,357.572c-.411,2.6-3.7,3.427-5.894,3.7-.343,0-.617.069-.891.069h0l.411-1.919h0c1.439-.274,3.427-.754,4.18-1.713a.973.973,0,0,0,.137-.411,2.366,2.366,0,0,0-.137-1.165c-1.439-3.221-7.333-6.3-10.485-7.95-1.508-.754-3.084-1.508-4.66-2.193h0l1.028-.891h.068C455.962,346.95,468.092,352.021,467.338,357.572Z" transform="translate(-450 -345.1)"/>
  </g>
  <circle id="Ellipse_129" data-name="Ellipse 129" cx="2.056" cy="2.056" r="2.056" transform="translate(24.621 4.566)" fill="#ff5a4b"/>
</svg>
